<svg width="220" height="180" viewBox="10 10 220 200" fill="none" xmlns="http://www.w3.org/2000/svg">
  <path d="M67.5384 173.762L27.7728 161.49L31.4952 159.135L55.6622 156.201L67.5384 173.762Z" fill="#666666"/>
  <path fill-rule="evenodd" clip-rule="evenodd" d="M218.084 108.798C218.084 158.359 178.087 198.534 128.746 198.534C79.407 198.534 39.4092 158.359 39.4092 108.798C39.4092 59.2387 79.407 19.0623 128.746 19.0623C178.087 19.0623 218.084 59.2387 218.084 108.798Z" fill="#ECB360"/>
  <path fill-rule="evenodd" clip-rule="evenodd" d="M194.261 99.8245C194.261 144.428 159.594 180.587 116.835 180.587C74.0741 180.587 39.4092 144.428 39.4092 99.8245C39.4092 55.2211 74.0741 19.0623 116.835 19.0623C159.594 19.0623 194.261 55.2211 194.261 99.8245Z" fill="#D76835"/>
  <path fill-rule="evenodd" clip-rule="evenodd" d="M200.216 90.8499C200.216 130.499 169.551 162.64 131.722 162.64C93.8976 162.64 63.2325 130.499 63.2325 90.8499C63.2325 51.2034 93.8976 19.0623 131.722 19.0623C169.551 19.0623 200.216 51.2034 200.216 90.8499Z" fill="#D33A41"/>
  <path fill-rule="evenodd" clip-rule="evenodd" d="M194.26 96.8338C194.26 133.176 166.261 162.64 131.723 162.64C97.1853 162.64 69.188 133.176 69.188 96.8338C69.188 60.4883 97.1853 31.0266 131.723 31.0266C166.261 31.0266 194.26 60.4883 194.26 96.8338Z" fill="#B6CB46"/>
  <path fill-rule="evenodd" clip-rule="evenodd" d="M188.304 102.815C188.304 135.855 161.639 162.64 128.745 162.64C95.8538 162.64 69.188 135.855 69.188 102.815C69.188 69.7752 95.8538 42.9921 128.745 42.9921C161.639 42.9921 188.304 69.7752 188.304 102.815Z" fill="#66AD4A"/>
  <path fill-rule="evenodd" clip-rule="evenodd" d="M164.481 90.8512C164.481 117.283 143.149 138.711 116.834 138.711C90.5185 138.711 69.188 117.283 69.188 90.8512C69.188 64.4194 90.5185 42.9921 116.834 42.9921C143.149 42.9921 164.481 64.4194 164.481 90.8512Z" fill="#AED7DC"/>
  <path fill-rule="evenodd" clip-rule="evenodd" d="M170.437 84.8688C170.437 107.996 151.772 126.746 128.746 126.746C105.719 126.746 87.0558 107.996 87.0558 84.8688C87.0558 61.74 105.719 42.9921 128.746 42.9921C151.772 42.9921 170.437 61.74 170.437 84.8688Z" fill="#5BB1CF"/>
  <path fill-rule="evenodd" clip-rule="evenodd" d="M170.437 87.8586C170.437 109.335 154.439 126.745 134.702 126.745C114.966 126.745 98.9672 109.335 98.9672 87.8586C98.9672 66.3847 114.966 48.9741 134.702 48.9741C154.439 48.9741 170.437 66.3847 170.437 87.8586Z" fill="#25A8C3"/>
  <path fill-rule="evenodd" clip-rule="evenodd" d="M128.746 126.745C112.3 126.745 98.9672 112.013 98.9672 93.841C98.9672 75.669 112.3 60.9388 128.746 60.9388C145.192 60.9388 158.526 75.669 158.526 93.841C158.526 112.013 145.192 126.745 128.746 126.745Z" fill="#1B1A18"/>
  <path fill-rule="evenodd" clip-rule="evenodd" d="M144.995 84.3544C142.162 89.115 136.592 91.8683 132.552 90.4994C128.512 89.1329 127.534 84.163 130.365 79.4013C133.198 74.6389 138.768 71.8873 142.808 73.2541C146.848 74.6208 147.826 79.5904 144.995 84.3544Z" fill="#FFFFFE"/>
  <g filter="url(#filter0_d)">
    <rect x="27.7728" y="119.717" width="118.841" height="41.6666" fill="#EEEEEE"/>
  </g>
  <path d="M50.1592 152.857H58.2063C59.9837 152.857 61.4847 152.467 62.7094 151.687C63.9449 150.961 64.9095 150.04 65.6031 148.923C65.8632 148.501 66.0854 148.094 66.2696 147.704C66.443 147.303 66.5731 146.848 66.6598 146.338C66.844 145.331 66.9361 143.553 66.9361 141.006C66.9361 138.611 66.8765 136.926 66.7573 135.95C66.6056 134.975 66.2425 134.043 65.6681 133.154C64.0641 130.51 61.6581 129.177 58.4501 129.155H50.1592V152.857ZM53.7519 132.553H58.0437C59.8645 132.509 61.2734 133.176 62.2705 134.552C62.7582 135.105 63.067 135.826 63.1971 136.714C63.2946 137.603 63.3434 139.077 63.3434 141.136C63.3434 143.25 63.2946 144.691 63.1971 145.461C63.0887 146.241 62.834 146.886 62.433 147.395C61.5226 148.772 60.0595 149.46 58.0437 149.46H53.7519V132.553Z" fill="#333333"/>
  <path d="M70.4645 152.857H85.5995V149.46H74.0572V142.502H83.9088V139.316H74.0572V132.553H85.5995V129.155H70.4645V152.857Z" fill="#333333"/>
  <path d="M88.3313 152.857H91.9241V138.08H91.9891L96.9474 149.46H99.9386L104.897 138.08H104.978V152.857H108.571V129.155H105.173L98.508 144.599L91.7127 129.155H88.3313V152.857Z" fill="#333333"/>
  <path d="M112.083 141.006C112.083 143.716 112.164 145.547 112.327 146.501C112.414 147.01 112.522 147.433 112.652 147.769C112.793 148.094 112.95 148.436 113.124 148.793C113.698 149.888 114.619 150.852 115.887 151.687C117.134 152.554 118.689 153.009 120.553 153.052C122.439 153.009 124.01 152.554 125.267 151.687C126.514 150.852 127.413 149.888 127.966 148.793C128.367 148.219 128.643 147.455 128.795 146.501C128.936 145.547 129.006 143.716 129.006 141.006C129.006 138.253 128.936 136.411 128.795 135.479C128.643 134.547 128.367 133.794 127.966 133.219C127.413 132.125 126.514 131.149 125.267 130.293C124.01 129.426 122.439 128.982 120.553 128.96C118.689 128.982 117.134 129.426 115.887 130.293C114.619 131.149 113.698 132.125 113.124 133.219C112.766 133.794 112.5 134.547 112.327 135.479C112.164 136.411 112.083 138.253 112.083 141.006ZM115.692 141.006C115.692 138.676 115.779 137.088 115.952 136.243C116.104 135.441 116.413 134.785 116.879 134.276C117.258 133.788 117.757 133.382 118.374 133.057C118.981 132.742 119.707 132.574 120.553 132.553C121.409 132.574 122.151 132.742 122.78 133.057C123.376 133.382 123.853 133.788 124.211 134.276C124.677 134.785 124.996 135.441 125.17 136.243C125.332 137.088 125.414 138.676 125.414 141.006C125.414 143.336 125.332 144.913 125.17 145.737C124.996 146.561 124.677 147.227 124.211 147.737C123.853 148.224 123.376 148.62 122.78 148.923C122.151 149.281 121.409 149.46 120.553 149.46C119.707 149.46 118.981 149.281 118.374 148.923C117.757 148.62 117.258 148.224 116.879 147.737C116.413 147.227 116.104 146.561 115.952 145.737C115.779 144.913 115.692 143.336 115.692 141.006Z" fill="#333333"/>
  <defs>
    <filter id="filter0_d" x="25.7728" y="119.717" width="124.841" height="47.6666" filterUnits="userSpaceOnUse" color-interpolation-filters="sRGB">
      <feFlood flood-opacity="0" result="BackgroundImageFix"/>
      <feColorMatrix in="SourceAlpha" type="matrix" values="0 0 0 0 0 0 0 0 0 0 0 0 0 0 0 0 0 0 127 0"/>
      <feOffset dx="1" dy="3"/>
      <feGaussianBlur stdDeviation="1.5"/>
      <feColorMatrix type="matrix" values="0 0 0 0 0 0 0 0 0 0 0 0 0 0 0 0 0 0 0.12 0"/>
      <feBlend mode="normal" in2="BackgroundImageFix" result="effect1_dropShadow"/>
      <feBlend mode="normal" in="SourceGraphic" in2="effect1_dropShadow" result="shape"/>
    </filter>
  </defs>
</svg>