<svg xmlns="http://www.w3.org/2000/svg" xml:space="preserve" width="2048" height="2048" style="shape-rendering:geometricPrecision;text-rendering:geometricPrecision;image-rendering:optimizeQuality;fill-rule:evenodd;clip-rule:evenodd"><defs><style>.fil0{fill:none}.fil6{fill:#ecedee}.fil4{fill:#f4dcbb}.fil1{fill:#6d4c41}</style></defs><g id="Layer_x0020_1"><path class="fil0" d="M255.999 256.012h1536v1535.97h-1536z"/><path class="fil0" d="M0 0h2048v2048H0z"/><g id="_520306304"><path id="_520299320" class="fil1" d="M704.098 380.458c17.516-58.67 157.123-110.414 214.075 98.186 56.974 208.592 28.28 281.671 59.688 355.29 31.448 73.635-42.681 643.59-218.153 641.74-187.57-1.985-228.482-547.107-191.164-657.56 37.336-110.406 4.716-437.81 135.554-437.656z"/><path id="_520282592" class="fil1" d="M1321.41 380.458c-17.515-58.67-157.123-110.414-214.081 98.186-56.967 208.592-28.284 281.671-59.682 355.29-31.447 73.635 42.682 643.59 218.146 641.74 187.577-1.985 228.48-547.107 191.164-657.56-37.328-110.406-4.719-437.81-135.547-437.656z"/><path id="_520290008" d="M1164.6 1236.19c-2.891 4.53-287.131 9.077-290.281 13.56-89.254 127.33-282.13 150.815-435.499 185.113-152.617 34.121-158.505 228-158.756 357.116h1487.87c-.227-129.117-3.077-322.284-158.788-357.116-155.694-34.806-359.87-65.543-444.544-198.673z" style="fill:#00897b"/><path id="_520284032" d="M1173.24 1248.82v70.097l-72.594 473.084H945.913l-71.958-467.987v-73.66l.405-.565c3.142-4.515 287.34-9.045 290.247-13.568 2.746 4.28 5.572 8.479 8.633 12.6z" style="fill:#414242"/><path id="_520289792" class="fil4" d="M874.934 931.92v365.207c74.686 152.803 208.769 156.768 298.129 0V931.92c0-197.189-298.129-197.189-298.129 0z"/><path id="_520278104" class="fil4" d="M1417.22 761.389c-29.783-13.405-71.843 19.51-93.947 73.466-22.135 54.012-15.933 108.644 13.85 122.043 29.791 13.415 71.876-19.473 93.978-73.466 22.105-53.987 15.902-108.612-13.881-122.043z"/><path id="_520279784" class="fil4" d="M631.052 761.389c29.776-13.405 71.834 19.479 93.97 73.466 22.105 54.012 15.9 108.644-13.882 122.043-29.785 13.415-71.842-19.473-93.97-73.466-22.104-53.987-15.878-108.612 13.882-122.043z"/><path id="_520288280" d="M1022.61 1217.15c-54.14 0-147.676-93.404-147.676-93.404v-10.17h298.129v9.128s-96.33 94.446-150.454 94.446z" style="fill:#c6b297;fill-rule:nonzero"/><path id="_520298816" class="fil4" d="M1024.3 1184.54c-92.571 0-288.147-152.593-348.586-371.111-61.054-220.681 53.915-537.198 348.586-537.198 294.647 0 409.64 316.517 348.564 537.198-60.472 218.518-256.012 371.111-348.564 371.111z"/><path id="_520276904" class="fil1" d="M1391.03 543.309c-29.023-114.363-175.382-288.342-312.673-285.143-19.77-2.076-42.294-2.875-66.859-1.437-24.575-1.438-47.099-.64-66.868 1.437-137.29-3.198-283.649 170.78-312.673 285.143-23.323 91.935-33.815 182.554 22.233 276.735 10.086 28.419 21.99 48.81 33.377 56.887-12.592-72.335-15.166-124.618-10.595-164.295 4.178-6.237 38.382 56.534 45.727 29.153 55.486-206.802 269.88-293.251 288.8-293.251 87.347.022 192.717-9.455 270.475 257.67 33.91-14.109 53.536-9.239 64.044 6.428 4.569 39.677 1.994 91.961-10.597 164.295 11.395-8.076 23.29-28.468 33.377-56.886 56.056-94.181 45.557-184.8 22.233-276.735z"/><path id="_520302416" class="fil6" d="M947.115 1791.84H821.384l-8.641.16-129.707-118.31 132.048-88.03-161.355-75.51 106.842-165.88 41.51-64.35 71.875-32.23v76.32L945.914 1792z"/><path id="_520285784" class="fil6" d="m1231.47 1580.57 131.96 88.03-129.94 123.4-8.31-.16h-125.74l1.21.16 72.59-473.09v-75.83l87.71 38.93 38.69 65.57 93.11 157.56z"/></g></g></svg>