<svg xmlns="http://www.w3.org/2000/svg" viewBox="0 0 1000 1000" xml:space="preserve"><switch><g><circle fill="#382B73" cx="500" cy="500" r="398"/><circle fill="#473080" cx="500" cy="500" r="346"/><path fill="#382B73" d="M714.4 634.5v-8.2c0-20.7-6.8-41-19.4-57.4-11.2-14.7-26.6-25.9-44-32-10.1-3.6-20.8-5.4-31.5-5.4h-72.3v-44.1c13.3-5.6 25.5-13.6 35.9-23.5 10.3-9.8 18.9-21.4 25.3-34.1 3.5-7 6.2-14.3 8.3-21.8 1.2.2 2.5.4 3.8.4 11.1 0 20.3-9.2 20.3-20.3v-30.9c0-11.2-9.1-20.3-20.3-20.3-.4-2.7-.9-5.4-1.7-8.1-3.3-16.7-10.1-32.7-20-46.6-2.9-4.1-6-7.9-9.3-11.6-13.7-15.1-31.2-26.6-50.5-33.1-21.4-7.2-44.8-8.3-66.7-3.1-12.6 3-24.6 8-35.6 14.7-10.8 6.7-20.5 15-28.7 24.6-8.5 10.1-15.6 21.6-20.4 33.9-2.7 6.9-4.8 13.9-6.2 21.1-.7 2.7-1.3 5.4-1.7 8.1h-.1c-11.2 0-20.3 9.1-20.3 20.3V388c0 11.1 9.2 20.3 20.3 20.3 1.3 0 2.6-.1 3.8-.4 9.8 35.9 35.7 65.1 69.5 79.4v44.1h-72.5c-19 0-37.7 5.8-53.4 16.4-15.7 10.7-28.1 26.2-35 44-4.3 10.9-6.4 22.6-6.4 34.4v78.3c10.3 11.9 21.5 23 33.6 33 12.2 10.1 25.1 19.2 38.8 27.2 13.5 7.9 27.7 14.6 42.3 20.1 14.5 5.5 29.5 9.7 44.8 12.7 16.1 3.2 32.4 4.9 48.8 5.3 16.5.3 33.1-.7 49.5-3.2 15.5-2.4 30.9-6.1 45.8-11 14.7-4.9 29-11 42.7-18.2 14.1-7.4 27.6-16.1 40.2-25.8 12.4-9.5 24-20.1 34.7-31.5 2.6-2.8 5.2-5.7 7.7-8.6V652l-.1-17.5z"/><path fill="#1CAEE4" d="M714.5 614.5v70.1c-9.2 10.7-19.2 20.7-29.9 29.9-.1.1-.2.1-.2.2-10.9 9.4-22.5 17.9-34.8 25.6-2.9 1.8-5.8 3.5-8.7 5.2-5.4 3.1-11 6.1-16.6 8.8-22.9 11.2-47.5 19.4-73.3 24.1-6.5 1.2-13.1 2.2-19.8 2.9-9 1-18.1 1.6-27.3 1.7h-8c-9.2-.1-18.3-.7-27.3-1.7-6.7-.7-13.4-1.7-20-2.9-25.7-4.7-50.2-12.9-73-24.1-5.6-2.8-11.2-5.7-16.6-8.8-2.9-1.7-5.8-3.4-8.7-5.2-12.3-7.7-24-16.3-35-25.8-10.7-9.2-20.7-19.2-29.9-29.9v-78.3c0-20.6 6.6-39.7 17.8-55.3 17.2-23.9 45.3-39.5 77-39.5h239.3c31.7 0 59.8 15.6 77 39.5 11.2 15.5 17.8 34.6 17.8 55.3l.2 8.2z"/><path fill="#136DA0" d="M547.2 511.5c-23.7 31.2-70.6 31.2-94.4 0h-19.6c9.6 22.1 35.9 37.9 66.8 37.9s57.2-15.8 66.8-37.9h-19.6z"/><path fill="#FEDE3A" d="M640.9 623.2v122.2c-5.4 3.1-11 6.1-16.6 8.8-22.9 11.2-47.5 19.4-73.3 24.1-6.5 1.2-13.1 2.2-19.8 2.9-9 1-18.1 1.6-27.3 1.7h-8c-9.2-.1-18.3-.7-27.3-1.7-6.7-.7-13.4-1.7-20-2.9-25.7-4.7-50.2-12.9-73-24.1-5.6-2.8-11.2-5.7-16.6-8.8V623.2c0-16.3 12.7-29.6 28.3-29.6h225.2c15.7.1 28.4 13.3 28.4 29.6z"/><path fill="#FFF" d="M359.1 632.1v113.4c-2.9-1.7-5.8-3.4-8.7-5.2-12.3-7.7-24-16.3-35-25.8-10.7-9.2-20.7-19.2-29.9-29.9v-52.5h73.6zM714.5 632.1v52.5c-9.2 10.7-19.2 20.7-29.9 29.9-.1.1-.2.1-.2.2-10.9 9.4-22.5 17.9-34.8 25.6-2.9 1.8-5.8 3.5-8.7 5.2V632.1h73.6z"/><path fill="#E7AD27" d="M640.9 745.4c-5.4 3.1-11 6.1-16.6 8.8L640.8 632l.1 113.4zM375.7 754.3c-5.6-2.8-11.2-5.7-16.6-8.8V632.1l16.6 122.2z"/><path fill="#FFF" d="M379.6 388.3c-11.2 0-20.3-9.1-20.3-20.3v-30.9c0-11.2 9.1-20.3 20.3-20.3 11.2 0 20.3 9.1 20.3 20.3V368c-.1 11.2-9.2 20.3-20.3 20.3z"/><path fill="#D1D3D4" d="M379.6 378.7c-11.2 0-20.3-9.1-20.3-20.3v9.5c0 11.2 9.1 20.3 20.3 20.3 11.2 0 20.3-9.1 20.3-20.3v-9.5c-.1 11.3-9.2 20.3-20.3 20.3z"/><path fill="#FFF" d="M620.4 388.3c-11.2 0-20.3-9.1-20.3-20.3v-30.9c0-11.2 9.1-20.3 20.3-20.3 11.2 0 20.3 9.1 20.3 20.3V368c0 11.2-9.1 20.3-20.3 20.3z"/><path fill="#D1D3D4" d="M620.4 378.7c-11.2 0-20.3-9.1-20.3-20.3v9.5c0 11.2 9.1 20.3 20.3 20.3 11.2 0 20.3-9.1 20.3-20.3v-9.5c0 11.3-9.1 20.3-20.3 20.3z"/><path fill="#FFF" d="M452.8 447.4v64.1c23.8 31.1 70.6 31.1 94.4 0v-64.1h-94.4z"/><path fill="#FFF" d="M381.3 308.8c3.9-20.2 12.9-38.5 25.5-53.8 3.6-4.4 7.6-8.6 11.8-12.4 21.5-19.6 50-31.5 81.4-31.5 1.4 0 2.8 0 4.2.1h1.4c31.2 1.4 59.3 14.6 79.9 35.3 18.4 18.4 30.9 42.7 34.4 69.9.7 5.1 1 10.3 1 15.6v24c0 66.8-54.1 120.9-120.9 120.9-66.8 0-120.9-54.1-120.9-120.9v-24c0-5.1.3-10.2.9-15.2l1.3-8z"/><path fill="#D1D3D4" d="M500 457.8c-66.8 0-120.9-54.1-120.9-120.9V356c0 66.8 54.1 120.9 120.9 120.9 66.8 0 120.9-54.1 120.9-120.9v-19.1c0 66.8-54.1 120.9-120.9 120.9z"/><path fill="#1CAEE4" d="M381.3 308.8h11.5v58c0 3.8-2.9 7.1-6.7 7.2-3.9.1-7.1-3-7.1-6.9v-41.7c.1-5.7.8-11.3 2.3-16.6zM620.9 324.4v42.4c0 3.5-2.5 6.6-6 7.1-4.2.5-7.8-2.7-7.8-6.8v-58.2h11.6c1.5 4.9 2.2 10.2 2.2 15.5z"/><path fill="#1CAEE4" d="M504.2 211.2c-12.2 19.1-42.6 60.4-91.7 89.4-11.8 7-22.7 12.3-32.5 16.3 2.9-23.3 12.5-44.6 26.8-61.8 3.6-4.4 7.6-8.6 11.8-12.4 21.5-19.6 50-31.5 81.4-31.5 1.4-.1 2.8-.1 4.2 0z"/><path fill="#136DA0" d="M619.9 316.4c-16.5 5-48.9 9.7-100.4-3.8C467.4 299 427.9 272 406.8 255c3.6-4.4 7.6-8.6 11.8-12.4 21.5-19.6 50-31.5 81.4-31.5 1.9 0 3.7 0 5.6.1 31.2 1.4 59.3 14.6 79.9 35.3 18.4 18.4 30.9 42.8 34.4 69.9z"/><path fill="#1CAEE4" d="M519.5 241.9c-22.8-6-43.2-14.5-60.7-23.6-15 5.4-28.6 13.7-40.2 24.3-4.2 3.9-8.2 8-11.8 12.4 21.1 17 60.6 44 112.7 57.6 51.5 13.5 84 8.8 100.4 3.8-3.2-25.2-14.3-48-30.6-65.8-17.5.8-40.5-1-69.8-8.7z"/><path fill="#136DA0" d="M519.5 265.5c-33.3-8.7-61.5-22.9-83-36.4-6.4 3.9-12.4 8.5-17.9 13.5-4.2 3.9-8.2 8-11.8 12.4 21.1 17 60.6 44 112.7 57.6 51.5 13.5 84 8.8 100.4 3.8-2-15.8-7.1-30.6-14.6-43.9-18.5 3-46.6 3.2-85.8-7z"/><path fill="#1CAEE4" d="M519.5 289.1c-42.7-11.2-77-31.3-99.6-47.6-.4.4-.9.8-1.3 1.2-4.2 3.9-8.2 8-11.8 12.4 21.1 17 60.6 44 112.7 57.6 51.5 13.5 84 8.8 100.4 3.8-1-7.6-2.7-15.1-5.1-22.2-17.6 4.3-48.6 7-95.3-5.2z"/><path fill="#136DA0" d="M500 396c-7.4 0-13.4-6-13.4-13.4V365c0-7.4 6-13.4 13.4-13.4s13.4 6 13.4 13.4v17.6c0 7.5-6 13.4-13.4 13.4z"/><g fill="#136DA0"><circle cx="443.8" cy="341.3" r="10.2"/><circle cx="556.2" cy="341.3" r="10.2"/></g><g><path fill="#136DA0" d="M500 431.8c-13 0-25.3-5.1-34.6-14.3-1.2-1.2-1.2-3.2 0-4.4 1.2-1.2 3.2-1.2 4.4 0 8.1 8.1 18.8 12.5 30.2 12.5s22.1-4.4 30.2-12.5c1.2-1.2 3.2-1.2 4.4 0 1.2 1.2 1.2 3.2 0 4.4-9.3 9.2-21.6 14.3-34.6 14.3z"/></g><g><path fill="#EF5A9D" d="m500 768.8-.1.1h.1v-.1z"/></g><g><path fill="#FFF335" d="M431.9 511.5H386v97.6c0 12.7 10.3 23 23 23s23-10.3 23-23v-97.6zM614 511.5h-45.9v97.6c0 12.7 10.3 23 23 23s23-10.3 23-23v-97.6z"/><circle fill="#FFF" cx="408.9" cy="608.2" r="11.7"/><circle fill="#FFF" cx="591.1" cy="608.2" r="11.7"/></g><path fill="#E7AD27" d="m605.1 720.5-18.6-18.6c-4.3-4.3-10.4-6.4-16.5-5.6-.3 0-.6.1-.9.1-1.2.2-2.4.3-3.6.3-.9 0-1.8-.1-2.8-.2-2-.3-4-.9-5.8-1.8-.1 0-.1-.1-.2-.1-.3-.2-.7-.4-1-.6l-.6-.3c-.3-.2-.5-.3-.8-.5-.3-.2-.5-.4-.7-.5-.2-.2-.4-.3-.6-.5-.3-.3-.6-.6-.9-.8-.1-.1-.2-.2-.4-.3L516.5 656l13.4-13.4 1.7 1.7c3.8 3.8 10 3.8 13.8 0l.6-.6c2.9.3 5.9-.6 8.2-2.8l13.5-13.5 20.2-20.2c2.2-2.2 3.2-5.3 2.8-8.2l.6-.6c3.8-3.8 3.8-10 0-13.8l-12-12-2.4-2.4c-3.8-3.8-10-3.8-13.8 0l-.6.6c-.4 0-.8-.1-1.2-.1-.6 0-1.3.1-1.9.2-.3.1-.6.1-.9.2-.5.1-.9.3-1.3.5s-.7.4-1.1.6c-.6.4-1.3.9-1.8 1.4l-33.7 33.7c-1 1-1.7 2.1-2.2 3.3-.2.6-.4 1.2-.5 1.8-.2 1-.2 2-.1 3.1l-.6.6c-3.8 3.8-3.8 10 0 13.8l1.7 1.7-13.3 13.4-33.5-33.5-1.6-1.6c-2.3-2.3-3.9-5.1-4.9-8.1-.9-3-1.1-6.2-.5-9.4.1-.5.2-1.1.2-1.6v-.5c0-.5.1-1 .1-1.5v-.1c0-.5 0-1-.1-1.6v-.4c-.1-.5-.1-1.1-.2-1.6 0-.1 0-.2-.1-.3-.1-.5-.2-1-.4-1.5 0-.1 0-.2-.1-.2-.2-.5-.3-1-.5-1.5-.1-.1-.1-.3-.2-.4-.2-.5-.4-1-.7-1.5 0-.1-.1-.2-.2-.3-.2-.4-.5-.8-.7-1.2-.1-.1-.1-.2-.2-.3-.3-.4-.6-.9-.9-1.3-.1-.1-.2-.2-.3-.4-.3-.4-.7-.8-1-1.1l-.1-.1-18.6-18.6c-.3-.3-.6-.6-1-.8-.1-.1-.2-.1-.2-.2-.3-.2-.5-.4-.8-.5-.1-.1-.2-.1-.4-.2s-.5-.2-.7-.3c-.1-.1-.3-.1-.4-.2-.2-.1-.5-.2-.7-.2-.2 0-.3-.1-.5-.1h-.2c-.2 0-.3-.1-.5-.1s-.4 0-.6-.1h-2c-.1 0-.3 0-.4.1h-.1c-.3 0-.6.1-.8.2h-.2c-.2.1-.5.1-.7.2-.1 0-.1 0-.2.1-.2.1-.5.2-.7.3-.4.1-.7.3-1.1.5-.7.4-1.4.8-2 1.3-.3.3-.6.5-.9.8l-3.9 3.9 21.5 21.5c-1.5 5.4-4.3 10.2-8.1 14-3.8 3.8-8.6 6.7-14 8.1L400 583.2l-3.9 3.9c-4.5 4.5-4.8 11.3-.8 15.3l9.3 9.3 9.3 9.3c.2.2.5.5.8.7l.1.1c.2.2.4.3.6.5.1.1.2.2.3.2.2.2.4.3.6.5.1.1.2.1.3.2.2.2.5.3.7.5.1 0 .2.1.2.1.3.2.5.3.8.5 0 0 .1 0 .1.1 3.9 2.2 8.5 2.9 13 2.1 1.2-.2 2.4-.3 3.6-.3.7 0 1.4.1 2.1.1h-.1c2.1.2 4.2.8 6.2 1.7.1.1.2.1.4.2.4.2.7.4 1.1.6.2.1.4.2.6.4.3.2.6.3.8.5.3.2.5.4.8.6.2.2.4.3.6.5.4.3.7.6 1.1 1 .1.1.2.1.2.2l35.1 35.1-72.9 72.5-5.1 14.1c-.2.6 0 1.2.3 1.6.4.4 1 .6 1.6.3l14.1-5.1 72.5-72.5 35.1 35.1c4.6 4.6 6.6 11.1 5.4 17.4-.1.5-.2 1.1-.2 1.6v.5c0 .5-.1 1-.1 1.5v.2c0 .5 0 1 .1 1.5v.4c.1.5.1 1.1.2 1.6 0 .1 0 .2.1.3.1.5.2 1 .4 1.5v.1c.2.5.4 1.1.6 1.6 0 .1.1.2.1.3.2.5.5 1.1.7 1.6v.1l.9 1.5.1.1c.3.5.7 1 1.1 1.4 0 .1.1.1.1.2.4.5.8.9 1.2 1.4l9 9 9.7 9.7c.3.3.6.5.9.8l.1.1c.3.2.5.4.8.5.1 0 .1.1.2.1.3.1.5.3.8.4.1 0 .1.1.2.1l.9.3h.1c.9.2 1.8.4 2.8.4h.2c.6 0 1.2-.1 1.8-.2.3-.1.6-.1.9-.2.1 0 .2-.1.3-.1.4-.1.7-.2 1.1-.4.1 0 .2-.1.3-.1l1.2-.6c.1-.1.2-.1.3-.2l.9-.6.3-.3c.4-.3.7-.6 1-.9l.4-.4 3.6-3.6-19.3-19.3-2.1-2.1 4.7-17.5 11.4-3.1 6.1-1.6 18.7 18.7 2.7 2.7 2-2 1.9-1.9c4.6-4.3 5-11.1 1-15.1z"/><g><path fill="#FFF" d="m549.2 591.4 10.9 10.9-138.2 138.3-14.1 5.1c-.6.2-1.2 0-1.6-.3-.4-.4-.6-1-.3-1.6l5.1-14.1 138.2-138.3z"/><path fill="#E6E7E8" d="m554.6 596.9 5.5 5.5-138.2 138.2-14.1 5.1c-.6.2-1.2 0-1.6-.3l148.4-148.5z"/><path fill="#A72973" d="m591.3 588.4-45.9 45.9c-3.8 3.8-10 3.8-13.8 0l-14.4-14.4c-3.8-3.8-3.8-10 0-13.8l45.9-45.9c3.8-3.8 10-3.8 13.8 0l14.4 14.4c3.9 3.8 3.9 10 0 13.8z"/><path fill="#FFF" d="m519.6 608.5 45.9-45.9c3.8-3.8 10-3.8 13.8 0l-2.4-2.4c-3.8-3.8-10-3.8-13.8 0l-45.9 45.9c-3.8 3.8-3.8 10 0 13.8l2.4 2.4c-3.8-3.8-3.8-10 0-13.8z"/><path fill="#EF5A9D" d="m587.9 597.2-33.7 33.7c-3.9 3.9-10.2 3.9-14.1 0l-19.5-19.5c-3.9-3.9-3.9-10.2 0-14.1l33.7-33.7c3.9-3.9 10.2-3.9 14.1 0l19.5 19.5c3.9 3.9 3.9 10.2 0 14.1z"/><path fill="#D94579" d="m587.9 583.1-2.5-2.5c3.9 3.9 3.9 10.2 0 14.1l-33.7 33.7c-3.9 3.9-10.2 3.9-14.1 0l-17-17 19.5 19.5c3.9 3.9 10.2 3.9 14.1 0l33.7-33.7c3.9-3.9 3.9-10.2 0-14.1z"/><path fill="#FFF" d="M523 613.7c-3.9-3.9-3.9-10.2 0-14.1l33.7-33.7c3.9-3.9 10.2-3.9 14.1 0l-2.4-2.4c-3.9-3.9-10.2-3.9-14.1 0l-33.7 33.7c-3.9 3.9-3.9 10.2 0 14.1l19.5 19.5-17.1-17.1z"/><path fill="#D94579" d="m567.2 579.8-30.3 30.3c-1.3 1.3-3.5 1.3-4.8 0l-1.3-1.3c-1.3-1.3-1.3-3.5 0-4.8l30.3-30.3c1.3-1.3 3.5-1.3 4.8 0l1.3 1.3c1.3 1.3 1.3 3.5 0 4.8zM578.3 591 548 621.3c-1.3 1.3-3.5 1.3-4.8 0l-1.3-1.3c-1.3-1.3-1.3-3.5 0-4.8l30.3-30.3c1.3-1.3 3.5-1.3 4.8 0l1.3 1.3c1.4 1.3 1.4 3.4 0 4.8z"/></g><g><path fill="#1CAEE4" d="m604.3 725.8-3.9 3.9-2.7-2.7-18.7-18.7-.3.1-17.1 4.6-4.7 17.5 21.5 21.5-3.9 3.9c-4.5 4.5-11.3 4.8-15.3.8L540.3 738c-3.7-3.7-5.7-8.7-5.7-13.8 0-1.2.1-2.4.3-3.6 1.2-6.4-.8-12.9-5.4-17.4L448.4 622c-3.7-3.7-8.7-5.7-13.8-5.7-1.2 0-2.4.1-3.6.3-6.3 1.2-12.9-.8-17.4-5.4L395 592.6c-4-4-3.6-10.8.8-15.3l3.9-3.9 21.5 21.5c5.4-1.5 10.2-4.3 14-8.1 3.8-3.8 6.7-8.6 8.1-14l-21.5-21.5 3.9-3.9c.3-.3.6-.6.9-.8.6-.5 1.3-1 2-1.3.3-.2.6-.3.9-.4.1 0 .1-.1.2-.1.2-.1.5-.2.7-.3.1 0 .1 0 .2-.1.2-.1.5-.2.7-.2h.1c.3-.1.6-.1.8-.2 3.2-.5 6.3.3 8.6 2.6l18.6 18.6c3.7 3.7 5.7 8.7 5.7 13.8 0 1.2-.1 2.4-.3 3.6-1.2 6.3.8 12.9 5.4 17.4l81.1 81.2c3.7 3.7 8.7 5.7 13.8 5.7 1.2 0 2.4-.1 3.6-.3.3-.1.6-.1.9-.1 6.1-.8 12.1 1.2 16.5 5.6l18.6 18.6c4.4 3.8 4 10.6-.4 15.1z"/><g fill="#136DA0"><path d="M417.6 611.2 399 592.6c-4-4-3.6-10.8.8-15.3l1.9-1.9-2-2-3.9 3.9c-4.5 4.5-4.8 11.3-.8 15.3l18.6 18.6c4.2 4.2 10 6.2 15.9 5.6-4.5-.5-8.7-2.4-11.9-5.6zM447.4 572.7c-2.9 10.8-14.4 20.3-25.3 23.2l-1-1c5.4-1.5 10.2-4.3 14-8.1 3.8-3.8 6.7-8.6 8.1-14l-21.5-21.5 3.9-3.9c.3-.3.6-.6.9-.8.6-.5 1.3-1 2-1.3 2.4-1.3 5.1-1.7 7.5-1.2-2.3.4-4.5 1.6-6.3 3.4l-3.9 3.9 21.6 21.3zM563 756.6 544.4 738c-4.6-4.6-6.6-11.1-5.4-17.4 1.2-6.3-.8-12.9-5.4-17.4L452.5 622c-4.2-4.2-10-6.2-15.9-5.6 4.4.5 8.6 2.4 11.8 5.6l81.1 81.1c4.6 4.6 6.6 11.1 5.4 17.4-1.2 6.3.8 12.9 5.4 17.4l18.6 18.6c2.3 2.4 5.7 3.2 8.9 2.6-1.7-.3-3.4-1.1-4.8-2.5zM602.4 727.7l-2.1 2-21.4-21.4h-.4l-.7-1.3 3.2-.8z"/></g><g fill="#FFF"><path d="m435.6 546.4 18.6 18.6c4.6 4.6 6.6 11.1 5.4 17.4-1.2 6.3.8 12.9 5.4 17.4l81.1 81.1c4.3 4.3 10.5 6.3 16.5 5.5-4.1-.6-8.1-2.5-11.1-5.5l-81.1-81.1c-4.6-4.6-6.6-11.1-5.4-17.4 1.2-6.3-.8-12.9-5.4-17.4L441 546.4c-2.5-2.5-6.2-3.3-9.6-2.4 1.6.4 3 1.2 4.2 2.4zM561.4 712.9l17.5-4.7-1.1-1.2-21.8 5.9-4.7 17.5 21.5 21.5-3.9 3.9c-1.6 1.6-3.6 2.7-5.6 3.2 3.7 1 8-.1 11.1-3.2l3.9-3.9-21.5-21.5 4.6-17.5zM604.3 725.8l-3.9 3.9-2.7-2.7 1.2-1.2c4.5-4.5 4.8-11.3.8-15.3L581 691.8c-3-3-6.9-4.9-11.1-5.5 6.1-.8 12.1 1.2 16.5 5.6l18.6 18.6c4.1 4 3.7 10.8-.7 15.3z"/></g><path fill="#009ADD" d="m537.9 700.3-86.6-86.6c-3.1-3.1-3.1-8.1 0-11.2 3.1-3.1 8.1-3.1 11.2 0l86.6 86.6c3.1 3.1 3.1 8.1 0 11.2-3.1 3.1-8.1 3.1-11.2 0z"/></g></g></switch></svg>